# xmcd CD database file
#
# Track frame offsets:
#	150
#	21907
#	39358
#	62084
#	79916
#	97304
#	118426
#	140464
#	159951
#	190718
#	213176
#	231844
#	245984
#
# Disc length: 3517 seconds
#
# Revision: 4
# Processed by: cddbd v1.5.2PL0 Copyright (c) Steve Scherf et al.
# Submitted via: CDex 1.70beta2
#
DISCID=b90dbb0d
DTITLE=B.B. King and Friends - 80
DYEAR=2005
DGENRE=Blues
TTITLE0=Early in the Morning with Van Morrison
TTITLE1=Tired of Your Jive with Billy F Gibbons
TTITLE2=The Thrill Is Gone with Eric Clapton
TTITLE3=Need Your Love So Bad with Sheryl Crow
TTITLE4=Ain't Nobody Home with Daryl Hall
TTITLE5=Hummingbird with John Mayer
TTITLE6=All Over Again with Mark Knopfler
TTITLE7=Drivin' Wheel with Glenn Frey
TTITLE8=There Must Be a Better World Somewhere with Gloria Estefan
TTITLE9=Never Make Your Move Too Soon with Roger Daltrey
TTITLE10=Funny How Time Slips Away with Bobby Bland
TTITLE11=Rock This House with Elton John
TTITLE12=Early In The Morning (Alternate Take-B.B. Solo)
EXTD=YEAR: 2005
EXTT0=
EXTT1=
EXTT2=
EXTT3=
EXTT4=
EXTT5=
EXTT6=
EXTT7=
EXTT8=
EXTT9=
EXTT10=
EXTT11=
EXTT12=
PLAYORDER=
